<?xml version="1.0" encoding="UTF-8"?>
<svg width="209px" height="55px" viewBox="0 0 209 55" version="1.1" xmlns="http://www.w3.org/2000/svg" xmlns:xlink="http://www.w3.org/1999/xlink">
    <!-- Generator: Sketch 44.1 (41455) - http://www.bohemiancoding.com/sketch -->
    <title>dupl_new</title>
    <desc>Created with Sketch.</desc>
    <defs></defs>
    <g id="Page-1" stroke="none" stroke-width="1" fill="none" fill-rule="evenodd">
        <g id="dupl_new">
            <path d="M49.748,27.152 L49.82,28.376 L49.748,29.6 L49.676,31.328 L49.46,32.48 L48.956,34.136 L48.596,35.288 L48.164,36.368 L47.732,37.52 L47.3,38.744 L46.868,39.824 L46.076,41.408 L45.5,42.344 L44.492,43.496 L43.772,44.288 L42.548,45.44 L40.964,47.024 L40.028,47.816 L38.66,48.896 L37.724,49.472 L36.284,50.264 L35.348,50.696 L33.764,51.272 L32.684,51.632 L31.532,51.92 L30.38,52.136 L25.988,52.784 L24.908,52.856 L23.324,53 L22.172,53 L19.868,52.928 L17.996,52.784 L16.844,52.784 L14.54,52.928 L12.74,53 L11.516,53.072 L10.436,53 L5.396,53 L4.316,52.928 L1.22,52.64 L0.644,52.352 L0.284,51.992 L0.14,51.2 L0.068,50.048 L0.14,49.472 L0.284,47.312 L0.284,46.304 L0.356,44.648 L0.356,43.568 L0.428,42.416 L0.428,41.264 L0.356,37.448 L0.356,36.296 L0.212,32.48 L0.284,31.4 L0.356,29.816 L0.5,28.736 L0.572,27.512 L0.572,26.36 L0.428,24.488 L0.356,23.264 L0.356,22.616 L0.284,21.392 L0.572,17.576 L0.572,16.424 L0.5,12.608 L0.5,11.456 L0.284,7.64 L0.284,4.832 L0.356,3.68 L0.572,2.6 L0.716,1.808 L1.004,1.376 L1.796,1.16 L3.02,1.016 L4.1,0.872 L5.252,0.8 L11.588,0.872 L12.74,0.872 L16.196,1.088 L16.772,1.16 L18.068,1.16 L21.092,1.016 L22.172,0.944 L23.324,0.944 L25.124,1.088 L27.428,1.232 L28.58,1.376 L30.452,1.664 L31.604,1.88 L32.684,2.168 L35.276,3.104 L36.356,3.608 L37.436,4.184 L38.444,4.76 L40.82,6.416 L41.756,7.208 L42.62,7.928 L44.204,9.44 L44.924,10.16 L45.572,10.952 L46.076,11.888 L46.868,13.472 L47.3,14.552 L47.66,15.704 L48.092,16.856 L48.452,18.008 L48.74,19.16 L49.028,20.744 L49.244,21.896 L49.46,23.12 L49.604,24.272 L49.676,26 L49.748,27.152 Z M32.54,35.936 L33.404,34.568 L33.908,33.488 L34.34,32.264 L34.628,31.184 L34.916,29.6 L34.988,28.592 L35.06,26.936 L35.06,24.632 L34.988,23.48 L34.772,21.824 L34.484,20.744 L34.34,20.312 L33.764,19.232 L32.684,17.72 L32.324,17.36 L31.604,16.568 L30.812,15.776 L29.948,15.128 L28.364,14.192 L27.356,13.76 L26.348,13.544 L25.196,13.328 L23.396,13.256 L22.172,13.184 L20.372,13.184 L18.788,13.112 L17.708,13.184 L16.124,13.4 L15.332,13.616 L14.972,13.976 L14.756,14.84 L14.684,15.488 L14.612,16.568 L14.756,18.728 L14.828,19.88 L14.972,21.464 L15.116,22.616 L15.188,23.768 L15.188,24.92 L15.116,26.504 L15.116,29.96 L15.044,31.184 L14.972,32.336 L14.828,33.92 L14.828,34.928 L14.756,36.584 L14.828,37.664 L15.044,39.392 L15.332,40.184 L15.764,40.544 L16.628,40.616 L23.324,40.184 L24.98,40.112 L26.132,39.896 L27.356,39.536 L28.508,39.104 L29.588,38.6 L30.524,37.952 L31.82,36.8 L32.54,35.936 Z M105.044,24.416 L105.332,19.952 L105.332,18.8 L105.476,14.408 L105.476,13.256 L105.26,8.792 L105.26,7.64 L105.332,5.984 L105.332,4.904 L105.26,2.744 L105.188,1.88 L104.612,1.376 L103.676,1.16 L102.596,1.088 L101.444,1.088 L98.564,1.304 L97.412,1.304 L93.74,1.016 L92.228,1.016 L91.292,1.232 L90.644,1.808 L90.356,2.816 L90.356,4.616 L90.572,7.64 L90.644,8.792 L90.788,13.256 L90.788,14.408 L90.644,18.8 L90.644,19.952 L90.428,24.416 L90.428,25.568 L90.716,29.96 L90.644,31.112 L90.356,33.272 L90.14,34.424 L89.78,35.576 L89.276,36.656 L88.484,38.168 L87.764,39.032 L86.612,40.04 L85.676,40.616 L84.308,41.264 L83.228,41.552 L81.356,41.912 L80.204,41.912 L78.332,41.768 L77.252,41.48 L75.668,40.904 L74.732,40.328 L73.58,39.104 L72.86,38.24 L72.14,36.584 L71.708,35.504 L71.276,33.92 L71.06,32.768 L70.916,30.968 L70.844,29.816 L70.916,25.424 L70.916,24.272 L71.132,19.88 L71.132,18.728 L71.204,14.336 L71.204,13.184 L70.988,8.792 L70.988,7.64 L71.132,4.832 L71.132,3.752 L71.06,2.744 L70.844,1.808 L70.268,1.232 L69.332,1.016 L67.676,0.944 L66.596,0.872 L64.22,0.944 L63.068,0.944 L60.332,0.728 L57.956,0.872 L57.02,1.088 L56.516,1.736 L56.3,2.888 L56.228,4.112 L56.228,5.336 L56.372,7.64 L56.372,14.336 L56.156,18.728 L56.156,19.88 L56.3,24.272 L56.3,25.424 L56.084,29.816 L56.156,30.968 L56.3,33.416 L56.444,34.64 L56.66,35.864 L56.948,37.448 L57.236,38.528 L57.524,39.536 L57.956,40.616 L58.46,41.768 L59.036,42.848 L59.684,43.856 L60.836,45.728 L61.484,46.592 L62.42,47.816 L63.212,48.608 L65.084,50.192 L66.164,50.912 L67.244,51.56 L68.828,52.28 L69.98,52.784 L70.556,53 L71.708,53.36 L72.356,53.432 L73.508,53.648 L77.468,54.08 L78.548,54.152 L80.204,54.296 L83.516,54.296 L85.748,54.152 L86.828,53.936 L88.484,53.648 L89.564,53.36 L91.148,52.784 L92.228,52.424 L93.74,51.704 L94.676,51.2 L96.116,50.336 L97.052,49.688 L98.492,48.536 L99.428,47.744 L100.292,46.808 L101.012,45.872 L101.948,44.432 L102.452,43.424 L103.1,41.912 L103.46,40.904 L104.036,39.392 L104.324,38.312 L104.612,36.656 L104.828,35.504 L105.116,33.776 L105.26,32.696 L105.332,31.04 L105.404,29.96 L105.26,27.656 L105.044,24.416 Z" id="DU" fill="#FCD866"></path>
            <path d="M161.632,18.944 L161.632,19.52 L161.704,20.6 L161.632,21.68 L161.56,22.904 L161.2,24.704 L160.984,25.856 L160.408,27.296 L159.976,28.304 L159.256,29.672 L158.608,30.608 L157.6,31.976 L156.808,32.84 L155.872,33.704 L154.936,34.496 L154,35.144 L152.992,35.792 L151.408,36.512 L150.328,37.016 L149.104,37.52 L148.024,37.88 L146.44,38.312 L145.36,38.528 L144.28,38.672 L143.128,38.744 L141.256,38.888 L135.208,38.888 L133.984,38.816 L132.76,38.888 L131.536,39.032 L130.672,39.176 L130.456,39.68 L130.384,40.616 L130.096,45.44 L130.096,46.592 L130.168,48.752 L130.096,49.832 L130.024,51.416 L129.88,52.208 L129.664,52.64 L129.304,52.784 L128.512,52.928 L126.208,53.072 L123.4,52.928 L122.248,52.928 L119.944,53.072 L118.792,53 L117.136,52.928 L116.2,52.64 L115.768,52.208 L115.624,51.344 L115.48,50.264 L115.408,49.112 L115.408,41.408 L115.696,37.592 L115.696,36.44 L115.408,32.624 L115.408,31.472 L115.264,22.688 L115.264,21.536 L115.552,17.648 L115.552,16.496 L115.336,12.68 L115.336,11.528 L115.624,7.712 L115.624,6.632 L115.48,4.472 L115.552,3.392 L115.624,2.816 L115.768,2.024 L115.984,1.592 L116.344,1.232 L117.136,1.16 L119.224,1.016 L120.88,1.088 L121.96,1.088 L126.784,1.016 L131.608,1.016 L136.432,1.304 L141.184,1.304 L143.92,1.16 L144.928,1.232 L145.504,1.232 L146.584,1.448 L148.24,1.88 L149.392,2.24 L150.544,2.672 L151.624,3.176 L152.704,3.824 L153.64,4.544 L154.936,5.696 L155.8,6.416 L156.16,6.848 L157.456,8.144 L158.176,9.08 L158.536,9.512 L159.04,10.376 L159.328,10.808 L159.76,11.744 L160.12,12.824 L160.408,13.832 L160.48,14.336 L160.768,15.344 L160.912,15.92 L161.2,16.928 L161.632,18.944 Z M135.208,26.864 L140.104,26.576 L141.4,26.432 L142.624,26.144 L143.2,25.928 L144.208,25.352 L144.64,25.064 L145.36,24.344 L145.648,23.912 L146.152,22.976 L146.368,22.472 L146.656,21.32 L146.728,20.816 L146.728,19.016 L146.512,17.936 L146.296,17.36 L145.864,16.424 L145.576,15.992 L144.784,15.128 L144.208,14.768 L143.128,14.192 L141.256,13.688 L140.104,13.544 L138.448,13.544 L136.288,13.688 L133.12,13.472 L132.04,13.472 L131.464,13.544 L130.672,13.688 L130.384,13.904 L130.168,14.408 L130.024,15.272 L130.024,16.928 L130.24,19.592 L130.312,20.744 L130.384,24.92 L130.456,25.784 L130.672,26.288 L131.464,26.576 L135.208,26.864 Z M208.792,47.384 L208.72,46.232 L208.648,42.2 L208.576,41.408 L208.36,40.904 L207.856,40.472 L206.992,40.256 L205.912,40.256 L204.76,40.328 L202.312,40.616 L201.16,40.688 L190.792,40.832 L189.64,40.832 L187.48,40.976 L185.032,40.832 L184.168,40.688 L183.808,40.4 L183.664,40.04 L183.592,39.68 L183.52,38.96 L183.952,29.456 L183.952,28.304 L183.736,24.128 L183.736,22.976 L183.592,18.8 L183.592,17.648 L183.808,13.472 L183.808,12.32 L183.664,8.144 L183.664,1.88 L183.304,1.376 L182.8,1.088 L182.08,1.088 L176.968,1.16 L175.816,1.16 L172.288,0.944 L171.208,1.016 L170.632,1.016 L169.84,1.16 L169.336,1.376 L169.048,1.808 L168.832,2.744 L168.76,3.392 L168.76,4.472 L168.904,6.632 L168.904,12.752 L168.976,16.568 L168.976,17.72 L169.264,26.504 L169.264,27.656 L169.12,36.44 L169.12,37.592 L168.976,41.408 L168.976,42.56 L169.264,46.376 L169.192,47.456 L168.832,50.192 L168.832,51.344 L168.976,52.208 L169.336,52.64 L169.84,52.928 L170.632,53.072 L171.64,53.144 L172.72,53.144 L176.032,52.928 L181.36,52.928 L185.536,53.216 L192.016,52.784 L197.416,52.784 L205.408,53.216 L206.416,53.144 L206.992,53.144 L207.712,53 L208.216,52.784 L208.648,52.28 L208.864,51.416 L208.864,50.768 L208.936,49.616 L208.792,47.384 Z" id="PL" fill="#033A72"></path>
        </g>
    </g>
</svg>